<?xml version="1.0" encoding="utf-8"?>
<!-- Generator: Adobe Illustrator 27.5.0, SVG Export Plug-In . SVG Version: 6.00 Build 0)  -->
<svg version="1.1" xmlns="http://www.w3.org/2000/svg" xmlns:xlink="http://www.w3.org/1999/xlink" x="0px" y="0px"
	 viewBox="0 0 750 500" style="enable-background:new 0 0 750 500;" xml:space="preserve">
<g id="Background_Complete">
	<g>
		<g>
			
				<rect x="177.771" y="234.297" transform="matrix(0.328 -0.9447 0.9447 0.328 -141.948 432.0351)" style="fill:#EBEBEB;" width="109.861" height="162.99"/>
		</g>
		<g>
			<g>
				<path style="fill:#E0E0E0;" d="M327.705,290.632c0.018,0.047-0.641,0.35-1.913,0.884c-1.41,0.572-3.269,1.326-5.591,2.267
					c-5.03,1.968-12.055,4.717-20.679,8.092c-17.654,6.755-41.82,16.001-68.586,26.243l-0.565,0.216l-0.324-0.513
					c-0.247-0.391-0.515-0.815-0.783-1.24c-15.401-24.57-29.338-46.805-39.529-63.062c-4.934-8.005-8.956-14.529-11.835-19.201
					c-1.311-2.186-2.36-3.935-3.154-5.26c-0.707-1.211-1.058-1.861-1.015-1.888c0.043-0.027,0.478,0.569,1.267,1.729
					c0.854,1.288,1.981,2.987,3.389,5.112c2.976,4.61,7.133,11.05,12.233,18.95c10.285,16.197,24.351,38.351,39.895,62.831
					c0.268,0.425,0.535,0.849,0.782,1.24l-0.887-0.297c26.827-10.081,51.047-19.182,68.741-25.831
					c8.693-3.192,15.775-5.792,20.845-7.654c2.363-0.835,4.254-1.503,5.689-2.01C326.993,290.795,327.687,290.584,327.705,290.632z"
					/>
			</g>
		</g>
		<g>
			<g>
				<path style="fill:#E0E0E0;" d="M137.697,340.952c-0.209-0.352,16.31-10.557,36.89-22.793
					c20.588-12.24,37.441-21.874,37.65-21.522c0.209,0.351-16.306,10.555-36.893,22.794
					C154.763,331.667,137.906,341.303,137.697,340.952z"/>
			</g>
		</g>
		<g>
			<g>
				<path style="fill:#E0E0E0;" d="M263.868,313.11c0.387-0.132,6.924,17.963,14.6,40.411c7.679,22.456,13.588,40.761,13.201,40.894
					c-0.387,0.132-6.923-17.959-14.601-40.415C269.392,331.552,263.482,313.242,263.868,313.11z"/>
			</g>
		</g>
	</g>
	<g>
		<g>
			<g>
				
					<rect x="483.354" y="222.395" transform="matrix(0.9859 -0.1671 0.1671 0.9859 -37.9744 97.5122)" style="fill:#E0E0E0;" width="154.526" height="104.156"/>
			</g>
			<g>
				<g>
					<path style="fill:#EBEBEB;" d="M628.095,210.219c0.037,0.031-0.373,0.584-1.187,1.607c-0.911,1.119-2.112,2.593-3.612,4.435
						c-3.283,3.931-7.867,9.42-13.494,16.16c-11.59,13.668-27.455,32.378-45.028,53.1l-0.371,0.437l-0.503-0.279
						c-0.384-0.212-0.8-0.443-1.216-0.673c-24.009-13.394-45.736-25.514-61.622-34.376c-7.752-4.401-14.071-7.989-18.596-10.558
						c-2.087-1.219-3.756-2.194-5.021-2.932c-1.14-0.684-1.728-1.064-1.705-1.106c0.023-0.042,0.657,0.255,1.842,0.859
						c1.297,0.681,3.009,1.579,5.149,2.702c4.577,2.474,10.969,5.929,18.812,10.168c15.937,8.769,37.734,20.763,61.821,34.016
						c0.416,0.231,0.832,0.461,1.216,0.674l-0.873,0.158c17.696-20.617,33.673-39.231,45.345-52.829
						c5.768-6.619,10.467-12.011,13.832-15.871c1.583-1.772,2.85-3.19,3.811-4.266C627.577,210.68,628.058,210.188,628.095,210.219z
						"/>
				</g>
			</g>
		</g>
		<g>
			<g>
				<path style="fill:#EBEBEB;" d="M493.14,338.727c-0.334-0.197,8.738-16.215,20.259-35.773
					c11.526-19.565,21.137-35.26,21.471-35.064c0.333,0.196-8.736,16.211-20.262,35.776
					C503.087,323.224,493.474,338.923,493.14,338.727z"/>
			</g>
		</g>
		<g>
			<g>
				<path style="fill:#EBEBEB;" d="M585.296,258.025c0.261-0.286,13.95,11.77,30.57,26.924
					c16.627,15.16,29.889,27.677,29.628,27.963c-0.261,0.286-13.947-11.767-30.573-26.926
					C598.301,270.831,585.035,258.311,585.296,258.025z"/>
			</g>
		</g>
	</g>
	<g>
		<g>
			
				<rect x="476.331" y="46.533" transform="matrix(0.3659 -0.9306 0.9306 0.3659 230.7202 542.9659)" style="fill:#EBEBEB;" width="74.993" height="111.261"/>
		</g>
		<g>
			<g>
				<g>
					<path style="fill:#E0E0E0;" d="M579.322,88.594c0.011,0.033-0.447,0.221-1.329,0.55c-0.977,0.351-2.266,0.814-3.876,1.392
						c-3.485,1.204-8.353,2.885-14.328,4.949c-12.228,4.12-28.965,9.76-47.504,16.006l-0.391,0.132l-0.207-0.359
						c-0.158-0.274-0.328-0.57-0.499-0.867c-9.826-17.184-18.719-32.734-25.22-44.104c-3.144-5.596-5.707-10.157-7.542-13.423
						c-0.834-1.527-1.501-2.749-2.006-3.675c-0.449-0.846-0.67-1.298-0.64-1.316c0.03-0.017,0.31,0.401,0.816,1.214
						c0.547,0.902,1.268,2.092,2.171,3.58c1.903,3.227,4.56,7.733,7.821,13.263c6.568,11.331,15.55,26.83,25.477,43.956
						c0.171,0.297,0.342,0.594,0.499,0.867l-0.597-0.227c18.576-6.135,35.347-11.674,47.599-15.721
						c6.018-1.937,10.919-3.515,14.429-4.645c1.635-0.504,2.943-0.908,3.936-1.214C578.832,88.686,579.311,88.562,579.322,88.594z"
						/>
				</g>
			</g>
		</g>
		<g>
			<g>
				<path style="fill:#E0E0E0;" d="M448.336,117.672c-0.133-0.245,11.415-6.751,25.79-14.528c14.38-7.78,26.141-13.886,26.274-13.64
					c0.133,0.245-11.413,6.749-25.793,14.529C460.232,111.81,448.468,117.917,448.336,117.672z"/>
			</g>
		</g>
		<g>
			<g>
				<path style="fill:#E0E0E0;" d="M535.161,102.164c0.267-0.079,4.227,12.443,8.843,27.966c4.617,15.528,8.143,28.177,7.875,28.256
					c-0.267,0.079-4.226-12.44-8.844-27.969C538.42,114.895,534.894,102.244,535.161,102.164z"/>
			</g>
		</g>
	</g>
</g>
<g id="Background_Simple" style="display:none;">
	<path style="display:inline;fill:#EBEBEB;" d="M446.443,364.08c89.192,0.823,135.004-44.836,135.004-44.836
		c22.736-20.468,30.272-48.032,27.981-78.538c-2.366-31.502-12.766-55.31-40.782-69.907s-62.182-15.534-92.026-5.176
		c-17.709,6.146-34.912,16.189-53.64,15.385c-25.554-1.096-45.809-22.123-58.784-44.166c-12.974-22.043-21.94-46.911-39.513-65.495
		c-24.567-25.981-65.103-35.427-98.624-22.983c-33.521,12.444-58.858,42.332-65.969,78.439c0,0-14.73,48.938,20.233,116.082
		C253.595,383.601,446.443,364.08,446.443,364.08z"/>
</g>
<g id="Floor">
	<g>
		<g>
			<path style="fill:#263238;" d="M661.577,457.077c0,0.144-128.315,0.26-286.564,0.26c-158.303,0-286.591-0.117-286.591-0.26
				c0-0.144,128.288-0.26,286.591-0.26C533.262,456.816,661.577,456.933,661.577,457.077z"/>
		</g>
	</g>
</g>
<g id="Character">
	<g>
		<g>
			<g>
				<g>
					<path style="fill:#FFBE9D;" d="M116.701,184.456l14.317-5.071l-6.145-8.205c-0.104-0.538-0.426-2.433-0.44-5.492
						c-0.004-0.946,0.162-1.885,0.475-2.778c0.379-1.083,0.942-2.501,1.491-3.182c0.68-0.842-0.018-2.073-0.968-1.82
						c-0.95,0.253-2.879,2.529-3.732,5.908c-0.853,3.379-3.167-1.593-4.043-3.389c-0.876-1.797-3.847-7.229-4.612-7.397
						c-1.123-0.247-1.594,0.911-0.678,2.685c0.928,1.796,3.29,7.288,2.319,7.704c-0.957,0.411-5.291-8.797-5.291-8.797
						s-0.608-2.118-1.746-1.674c-2.053,0.801,3.275,10.25,3.804,11.137c0.368,0.616-0.671,1.107-1.031,0.424
						c-0.37-0.703-4.109-9.285-6.208-8.489c-1.61,0.611,4.31,7.813,4.097,10.024c-0.214,2.211-3.934-5.918-5.448-5.272
						c-0.564,0.241-0.951,0.499,1.86,4.859c0.951,1.475,2.657,3.646,4.511,5.891l-0.001,0L116.701,184.456"/>
				</g>
				<g>
					<g>
						<g>
							<path style="fill:#E8505B;" d="M245.408,201.945c0,0-7.054-16.487-11.93-24.495c-4.589-7.537-10.666-8.762-13.905-8.991
								c-2.447-0.716-4.125-0.844-4.125-0.844l-26.492-0.225c0,0-8.227-0.432-15.81,5.797c-1.222,1.004-10.379,11.619-22.521,26.742
								l-21.253-22.964l-12.67,7.492c0,0,13.761,47.512,31.028,44.25c10.231-1.933,18.232-9.057,18.232-9.057l13.445-10.837
								l0.311,1.795c0.272,2.191,0.954,5.73,1.468,7.877c1.626,6.786,2.529,15.727-0.963,21.65c0,0-4.792,3.664-0.98,7.696h49.844
								c0,0,7.061-4.786,0.615-10.112l-4.04-10.114l2.611-12.338l0.978-4.941l4.383,7.519c0,0,8.685,10.926,17.713,9.582
								c10.855-1.616,17.146-21.386,7.348-47.526l-11.8,3.59L245.408,201.945z"/>
						</g>
					</g>
				</g>
				<g style="opacity:0.4;">
					<polygon points="116.701,184.456 117.953,188.421 132.027,179.833 129.371,176.964 					"/>
				</g>
				<g style="opacity:0.2;">
					<g>
						<path d="M180.224,240.135c4.273-0.581,7.929-2.999,10.496-6.464s3.667-7.982,2.979-12.239
							c-0.243-1.501-0.791-3.094-2.079-3.901c-1.572-0.985-3.717-0.478-5.354-1.35c-1.335-0.711-2.049-2.172-2.973-3.369
							c-0.924-1.197-2.22-3.063-3.605-2.457c0,0,1.673,8.8,2.404,12.718c0.735,3.944,0.967,9.544-0.407,13.661
							C181.307,237.952,180.812,239.08,180.224,240.135z"/>
					</g>
				</g>
				<g>
					<g>
						<path style="fill:#263238;" d="M148.624,208.042c-0.157-0.024,0.095-1.908,0.739-4.129c0.642-2.216,1.121-4.007,1.261-3.985
							c0.157,0.024-0.095,1.908-0.739,4.13C149.243,206.273,148.764,208.064,148.624,208.042z"/>
					</g>
				</g>
				<g>
					<g>
						<path style="fill:#263238;" d="M151.776,205.848c-0.147,0.03-0.533-1.274-0.863-2.911c-0.33-1.638-0.478-2.989-0.332-3.018
							c0.147-0.03,0.533,1.274,0.863,2.911C151.774,204.467,151.922,205.818,151.776,205.848z"/>
					</g>
				</g>
				<g>
					<polygon style="fill:#455A64;" points="246.836,147.638 228.74,176.964 242.982,180.925 258.78,156.561 					"/>
				</g>
				<g>
					<path style="fill:#FFBE9D;" d="M245.706,172.622l0.619,4.286l2.524,3.249l0.254,2.663l9.079-2.762l-3.669-12.954
						c0,0,0.589-3.771,0.354-5.303l-2.493,3.314l-0.688-5.4l-5.119-4.115c-0.555-0.414-1.342-0.293-1.747,0.268l0,0
						c-0.359,0.497-0.301,1.181,0.135,1.611l4.108,3.622l0.266,4.472l-2.97-2.765c-0.293-0.273-0.656-0.459-1.048-0.537
						l-4.129-0.826c-0.624-0.125-1.219,0.315-1.282,0.948l0,0c-0.051,0.51,0.265,0.985,0.755,1.136l3.754,1.155l3.801,3.835
						l-3.712-1.414l-5.05,0.707c-0.483,0.068-0.843,0.481-0.843,0.969l0,0c0,0.562,0.472,1.008,1.033,0.977l3.21-0.178l1.886,0.589
						l-4.344,1.15c-0.4,0.106-0.672,0.478-0.651,0.891l0,0c0.025,0.495,0.454,0.871,0.948,0.83L245.706,172.622z"/>
				</g>
				<g style="opacity:0.4;">
					<polygon points="246.896,183.491 246.509,188.295 260.276,184.497 258.696,179.902 					"/>
				</g>
				<g>
					<path style="fill:#263238;" d="M228.74,176.964c0,0-1.215-1.652-1.122-1.933c0.094-0.281,17.223-28.473,17.223-28.473
						l1.995,1.08L228.74,176.964z"/>
				</g>
				<g>
					<path style="fill:#263238;" d="M251.368,155.009c0.306-0.306,0.921-0.15,1.045,0.264c0.123,0.414-0.307,0.882-0.73,0.793
						c-0.423-0.089-0.629-0.689-0.35-1.019"/>
				</g>
				<g>
					<g>
						<path style="fill:#FAFAFA;" d="M240.033,191.194c0,0-0.115,0.289-0.522,0.704c-0.403,0.413-1.148,0.906-2.226,1.158
							c-1.071,0.273-2.451,0.257-3.974-0.004c-1.517-0.212-3.267-0.65-5.128-0.23c-1.863,0.408-3.645,1.602-5.415,3.015
							c-1.788,1.375-3.675,3.07-6.219,3.871c-1.267,0.36-2.636,0.481-4.003,0.314c-1.364-0.181-2.701-0.601-4.011-1.113
							c-2.623-1.031-5.139-2.479-7.895-3.481c-1.377-0.494-2.784-0.829-4.19-0.931c-1.409-0.088-2.808,0.07-4.159,0.352
							c-2.708,0.559-5.246,1.503-7.78,2.04c-5.112,1.148-9.945-0.029-13.371-1.85c-3.481-1.831-5.696-4.218-6.96-5.977
							c-1.254-1.79-1.666-2.936-1.666-2.936c0.064-0.035,0.544,1.08,1.835,2.81c1.301,1.702,3.525,4.008,6.965,5.762
							c3.391,1.745,8.112,2.849,13.09,1.702c2.486-0.538,5.017-1.492,7.779-2.072c1.378-0.291,2.827-0.46,4.299-0.369
							c1.471,0.103,2.932,0.453,4.341,0.959c2.815,1.025,5.335,2.481,7.907,3.497c1.284,0.506,2.579,0.915,3.881,1.094
							c1.304,0.163,2.593,0.053,3.794-0.279c2.404-0.737,4.281-2.377,6.087-3.748c1.788-1.402,3.645-2.629,5.611-3.035
							c1.979-0.415,3.757,0.071,5.256,0.305c1.509,0.286,2.83,0.33,3.879,0.097c1.05-0.213,1.782-0.657,2.198-1.031
							C239.855,191.442,240.009,191.176,240.033,191.194z"/>
					</g>
				</g>
			</g>
			<g>
				<g>
					<path style="fill:#263238;" d="M245.698,210.243c-0.15,0.005-0.333-1.981-0.409-4.435c-0.076-2.455-0.017-4.448,0.133-4.452
						c0.15-0.005,0.333,1.981,0.409,4.436C245.907,208.245,245.847,210.238,245.698,210.243z"/>
				</g>
			</g>
		</g>
		<g>
			<g>
				<path style="fill:#FFBE9D;" d="M214.506,394.112c0.439,1.735,10.637,58.926,10.637,58.926l15.624-1.169l-2.856-58.397
					L214.506,394.112z"/>
			</g>
			<g>
				<g>
					<g>
						<g>
							<g>
								<g>
									<g>
										<path style="fill:#E8505B;" d="M241.24,452.775l-0.049-1.644l-16.651,0.347l0.1,5.421l1.029,0.042
											c4.58,0.15,23.297,0.464,26.335-0.455C255.393,455.46,241.24,452.775,241.24,452.775z"/>
									</g>
								</g>
							</g>
						</g>
						<g style="opacity:0.3;">
							<g>
								<g>
									<g>
										<path d="M230.648,456.665c-0.266-1.283-1.063-2.465-2.191-3.246c-1.128-0.781-2.503-1.178-3.9-1.048l0.096,4.307
											L230.648,456.665z"/>
									</g>
								</g>
							</g>
						</g>
					</g>
					<g>
						<g>
							<g style="opacity:0.3;">
								<g>
									<path d="M248.161,454.315c0,0,4.967,1.231,4.368,1.999c-0.598,0.767-19.525,1.112-27.889,0.585l0.019-0.345l22.081-0.227
										C246.74,456.327,247.196,454.371,248.161,454.315z"/>
								</g>
							</g>
						</g>
					</g>
					<g>
						<g>
							<g>
								<g>
									<g>
										<path style="fill:#263238;" d="M224.398,456.549c0,0.007,0.098,0.014,0.286,0.023c0.246,0.009,0.515,0.02,0.82,0.031
											c0.819,0.018,1.827,0.04,3.016,0.066c2.546,0.039,6.066,0.049,9.951-0.019c3.887-0.069,7.403-0.202,9.946-0.33
											c1.187-0.068,2.192-0.125,3.01-0.171c0.303-0.022,0.572-0.042,0.817-0.06c0.187-0.016,0.285-0.027,0.284-0.034
											c-0.001-0.007-0.099-0.008-0.286-0.004c-0.246,0.007-0.516,0.016-0.82,0.025c-0.818,0.03-1.825,0.068-3.013,0.112
											c-2.544,0.094-6.059,0.206-9.944,0.275c-3.883,0.067-7.4,0.078-9.946,0.074c-1.189-0.003-2.196-0.005-3.015-0.007
											c-0.304,0.001-0.574,0.003-0.82,0.004C224.497,456.538,224.399,456.543,224.398,456.549z"/>
									</g>
								</g>
							</g>
						</g>
					</g>
					<g>
						<g>
							<g>
								<g>
									<g>
										<path style="fill:#263238;" d="M246.741,456.566c0.061,0.006,0.094-0.664,0.533-1.347
											c0.427-0.691,1.039-1.044,1.003-1.091c-0.013-0.046-0.717,0.257-1.177,0.997
											C246.631,455.858,246.691,456.578,246.741,456.566z"/>
									</g>
								</g>
							</g>
						</g>
					</g>
					<g>
						<g>
							<g>
								<g>
									<g>
										<path style="fill:#263238;" d="M241.798,454.348c0.047,0.027,0.275-0.242,0.509-0.601
											c0.234-0.359,0.385-0.671,0.338-0.698c-0.047-0.027-0.275,0.242-0.509,0.601
											C241.901,454.009,241.75,454.321,241.798,454.348z"/>
									</g>
								</g>
							</g>
						</g>
					</g>
					<g>
						<g>
							<g>
								<g>
									<g>
										<path style="fill:#263238;" d="M240.441,453.713c0.038,0.038,0.296-0.129,0.576-0.373c0.28-0.244,0.477-0.472,0.439-0.51
											c-0.038-0.038-0.296,0.129-0.576,0.373C240.599,453.447,240.403,453.675,240.441,453.713z"/>
									</g>
								</g>
							</g>
						</g>
					</g>
					<g>
						<g>
							<g>
								<g>
									<g>
										<path style="fill:#263238;" d="M239.56,452.273c0.001,0.052,0.389,0.091,0.867,0.087c0.479-0.004,0.866-0.049,0.865-0.1
											s-0.389-0.09-0.867-0.087C239.947,452.177,239.559,452.222,239.56,452.273z"/>
									</g>
								</g>
							</g>
						</g>
					</g>
					<g>
						<g>
							<g>
								<g>
									<g>
										<path style="fill:#263238;" d="M239.245,451.253c-0.018,0.046,0.408,0.216,0.971,0.243
											c0.563,0.031,1.006-0.094,0.994-0.142c-0.011-0.053-0.448-0.015-0.983-0.045
											C239.693,451.284,239.262,451.201,239.245,451.253z"/>
									</g>
								</g>
							</g>
						</g>
					</g>
					<g>
						<g>
							<g>
								<g>
									<g>
										<path style="fill:#263238;" d="M242.33,452.993c-0.001,0.021,0.409,0.06,1.065-0.026c0.327-0.043,0.714-0.122,1.129-0.253
											c0.206-0.073,0.422-0.128,0.644-0.261c0.104-0.067,0.219-0.161,0.257-0.312c0.041-0.149-0.048-0.314-0.17-0.393
											c-1.029-0.472-2.037,0.079-2.404,0.575c-0.203,0.254-0.292,0.499-0.333,0.667c-0.039,0.17-0.033,0.267-0.022,0.268
											c0.038,0.012,0.063-0.391,0.466-0.854c0.199-0.227,0.503-0.449,0.898-0.566c0.374-0.111,0.909-0.148,1.271,0.057
											c0.172,0.113,0.11,0.299-0.076,0.407c-0.173,0.109-0.398,0.177-0.593,0.249c-0.4,0.136-0.774,0.227-1.091,0.285
											C242.735,452.955,242.329,452.963,242.33,452.993z"/>
									</g>
								</g>
							</g>
						</g>
					</g>
					<g>
						<g>
							<g>
								<g>
									<g>
										<path style="fill:#263238;" d="M242.607,453.038c0.015,0.01,0.167-0.245,0.107-0.69c-0.031-0.218-0.123-0.476-0.307-0.718
											c-0.193-0.216-0.442-0.515-0.898-0.489c-0.246,0.034-0.361,0.298-0.318,0.463c0.023,0.173,0.11,0.32,0.191,0.439
											c0.164,0.245,0.347,0.442,0.516,0.59c0.341,0.297,0.607,0.409,0.618,0.39c0.018-0.025-0.216-0.174-0.517-0.482
											c-0.15-0.154-0.313-0.35-0.459-0.586c-0.151-0.207-0.259-0.581,0.007-0.631c0.266-0.029,0.544,0.213,0.711,0.408
											c0.172,0.211,0.27,0.44,0.316,0.638C242.665,452.772,242.571,453.031,242.607,453.038z"/>
									</g>
								</g>
							</g>
						</g>
					</g>
					<g>
						<g>
							<g>
								<g>
									<g>
										<path style="fill:#263238;" d="M224.643,452.326c0.004,0.035,0.474-0.051,1.225,0.018
											c0.744,0.063,1.782,0.327,2.695,0.975c0.912,0.649,1.458,1.512,1.719,2.163c0.268,0.656,0.302,1.1,0.34,1.095
											c0.012-0.001,0.016-0.112-0.006-0.311c-0.022-0.199-0.079-0.486-0.199-0.828c-0.233-0.68-0.78-1.59-1.731-2.268
											c-0.952-0.675-2.04-0.928-2.806-0.958c-0.386-0.018-0.699,0.005-0.911,0.038
											C224.755,452.283,224.64,452.315,224.643,452.326z"/>
									</g>
								</g>
							</g>
						</g>
					</g>
					<g>
						<g>
							<g>
								<g>
									<g>
										<path style="fill:#263238;" d="M232.7,455.124c-0.006,0.048,1.078,0.194,2.425,0.179c1.348-0.011,2.428-0.176,2.42-0.225
											c-0.007-0.054-1.088,0.027-2.423,0.038C233.788,455.131,232.705,455.07,232.7,455.124z"/>
									</g>
								</g>
							</g>
						</g>
					</g>
					<g>
						<g>
							<g>
								<g>
									<g>
										<path style="fill:#263238;" d="M229.451,455.179c-0.04,0.038,0.093,0.212,0.209,0.441
											c0.119,0.228,0.181,0.432,0.238,0.428c0.054-0.001,0.08-0.245-0.057-0.508
											C229.707,455.275,229.486,455.141,229.451,455.179z"/>
									</g>
								</g>
							</g>
						</g>
					</g>
					<g>
						<g>
							<g>
								<g>
									<g>
										<path style="fill:#263238;" d="M228.195,453.785c-0.039,0.037,0.072,0.195,0.247,0.354
											c0.175,0.159,0.348,0.257,0.387,0.22c0.039-0.037-0.072-0.195-0.247-0.354
											C228.407,453.846,228.234,453.748,228.195,453.785z"/>
									</g>
								</g>
							</g>
						</g>
					</g>
					<g>
						<g>
							<g>
								<g>
									<g>
										<path style="fill:#263238;" d="M226.429,453.169c0.013,0.052,0.233,0.046,0.478,0.122c0.247,0.07,0.423,0.193,0.466,0.157
											c0.044-0.029-0.1-0.246-0.406-0.335C226.663,453.022,226.411,453.122,226.429,453.169z"/>
									</g>
								</g>
							</g>
						</g>
					</g>
					<g>
						<g>
							<g>
								<g>
									<g>
										<path style="fill:#263238;" d="M225.175,452.887c-0.019,0.048,0.078,0.126,0.217,0.173
											c0.139,0.047,0.266,0.046,0.286-0.002c0.019-0.048-0.078-0.126-0.217-0.173
											C225.322,452.837,225.194,452.838,225.175,452.887z"/>
									</g>
								</g>
							</g>
						</g>
					</g>
				</g>
			</g>
		</g>
		<g>
			<g>
				<path style="fill:#FFBE9D;" d="M174.755,389.338c-0.08,1.787-6.578,57.485-6.578,57.485l15.297,3.386l14.106-56.74
					L174.755,389.338z"/>
			</g>
			<g>
				<g>
					<g>
						<g>
							<g>
								<g>
									<g>
										<path style="fill:#E8505B;" d="M184.164,451.695l0.344-1.608l-16.255-3.627l-1.193,5.289l0.99,0.286
											c4.412,1.236,22.517,5.996,25.686,5.827C197.271,457.671,184.164,451.695,184.164,451.695z"/>
									</g>
								</g>
							</g>
						</g>
						<g style="opacity:0.3;">
							<g>
								<g>
									<g>
										<path d="M172.95,452.951c0.047-1.309-0.446-2.647-1.355-3.674c-0.909-1.027-2.15-1.74-3.539-1.946l-0.932,4.206
											L172.95,452.951z"/>
									</g>
								</g>
							</g>
						</g>
					</g>
					<g>
						<g>
							<g style="opacity:0.3;">
								<g>
									<path d="M190.519,454.838c0,0,4.531,2.378,3.767,2.981c-0.764,0.603-19.229-3.568-27.226-6.071l0.1-0.331l21.5,5.036
										C188.66,456.453,189.569,454.662,190.519,454.838z"/>
								</g>
							</g>
						</g>
					</g>
					<g>
						<g>
							<g>
								<g>
									<g>
										<path style="fill:#263238;" d="M166.908,451.351c-0.002,0.006,0.092,0.037,0.272,0.091
											c0.237,0.068,0.496,0.142,0.789,0.225c0.792,0.212,1.765,0.474,2.913,0.782c2.464,0.644,5.88,1.491,9.67,2.351
											c3.791,0.859,7.238,1.566,9.739,2.047c1.169,0.217,2.159,0.401,2.965,0.55c0.3,0.051,0.566,0.096,0.808,0.137
											c0.185,0.029,0.283,0.041,0.284,0.035c0.001-0.006-0.094-0.031-0.277-0.072c-0.241-0.051-0.504-0.108-0.802-0.171
											c-0.802-0.165-1.789-0.369-2.953-0.608c-2.493-0.514-5.934-1.242-9.723-2.1c-3.788-0.859-7.206-1.686-9.678-2.296
											c-1.154-0.285-2.132-0.527-2.927-0.724c-0.296-0.071-0.558-0.134-0.798-0.191
											C167.007,451.364,166.91,451.345,166.908,451.351z"/>
									</g>
								</g>
							</g>
						</g>
					</g>
					<g>
						<g>
							<g>
								<g>
									<g>
										<path style="fill:#263238;" d="M188.604,456.686c0.058,0.021,0.249-0.622,0.838-1.182
											c0.579-0.569,1.258-0.767,1.234-0.821c-0.002-0.048-0.758,0.079-1.38,0.688
											C188.666,455.973,188.553,456.686,188.604,456.686z"/>
									</g>
								</g>
							</g>
						</g>
					</g>
					<g>
						<g>
							<g>
								<g>
									<g>
										<path style="fill:#263238;" d="M184.331,453.355c0.04,0.037,0.325-0.17,0.638-0.462c0.313-0.292,0.534-0.56,0.494-0.597
											c-0.04-0.037-0.325,0.17-0.638,0.462C184.512,453.05,184.291,453.318,184.331,453.355z"/>
									</g>
								</g>
							</g>
						</g>
					</g>
					<g>
						<g>
							<g>
								<g>
									<g>
										<path style="fill:#263238;" d="M183.164,452.415c0.028,0.046,0.318-0.055,0.648-0.225c0.33-0.17,0.575-0.345,0.548-0.391
											c-0.028-0.046-0.318,0.055-0.648,0.225C183.382,452.194,183.137,452.369,183.164,452.415z"/>
									</g>
								</g>
							</g>
						</g>
					</g>
					<g>
						<g>
							<g>
								<g>
									<g>
										<path style="fill:#263238;" d="M182.651,450.807c-0.012,0.05,0.356,0.181,0.822,0.291c0.466,0.11,0.852,0.159,0.864,0.109
											c0.012-0.05-0.356-0.18-0.822-0.291C183.05,450.806,182.663,450.757,182.651,450.807z"/>
									</g>
								</g>
							</g>
						</g>
					</g>
					<g>
						<g>
							<g>
								<g>
									<g>
										<path style="fill:#263238;" d="M182.589,449.741c-0.028,0.041,0.345,0.307,0.885,0.468
											c0.539,0.164,0.999,0.148,0.999,0.099c0.002-0.054-0.432-0.122-0.944-0.278
											C183.016,449.878,182.617,449.695,182.589,449.741z"/>
									</g>
								</g>
							</g>
						</g>
					</g>
					<g>
						<g>
							<g>
								<g>
									<g>
										<path style="fill:#263238;" d="M185.171,452.166c-0.006,0.02,0.383,0.156,1.04,0.229c0.328,0.036,0.722,0.051,1.157,0.023
											c0.217-0.021,0.44-0.024,0.687-0.1c0.117-0.041,0.251-0.105,0.324-0.242c0.075-0.135,0.028-0.317-0.072-0.422
											c-0.887-0.703-1.997-0.408-2.472-0.013c-0.257,0.198-0.403,0.415-0.482,0.569c-0.078,0.156-0.096,0.251-0.085,0.255
											c0.034,0.021,0.155-0.365,0.656-0.718c0.247-0.173,0.595-0.317,1.007-0.336c0.389-0.018,0.918,0.072,1.221,0.358
											c0.14,0.151,0.035,0.317-0.171,0.377c-0.194,0.064-0.429,0.077-0.636,0.1c-0.421,0.037-0.805,0.036-1.128,0.017
											C185.574,452.225,185.177,452.136,185.171,452.166z"/>
									</g>
								</g>
							</g>
						</g>
					</g>
					<g>
						<g>
							<g>
								<g>
									<g>
										<path style="fill:#263238;" d="M185.429,452.275c0.012,0.014,0.221-0.199,0.269-0.645
											c0.022-0.219-0.006-0.492-0.127-0.771c-0.136-0.256-0.306-0.605-0.756-0.689c-0.247-0.026-0.421,0.203-0.419,0.374
											c-0.019,0.174,0.031,0.337,0.081,0.472c0.101,0.277,0.232,0.512,0.361,0.696c0.26,0.37,0.492,0.541,0.508,0.526
											c0.024-0.02-0.168-0.22-0.387-0.591c-0.109-0.185-0.22-0.414-0.307-0.679c-0.097-0.237-0.114-0.626,0.157-0.611
											c0.265,0.035,0.477,0.336,0.594,0.565c0.117,0.246,0.158,0.492,0.155,0.695
											C185.549,452.031,185.396,452.26,185.429,452.275z"/>
									</g>
								</g>
							</g>
						</g>
					</g>
					<g>
						<g>
							<g>
								<g>
									<g>
										<path style="fill:#263238;" d="M168.15,447.307c-0.004,0.035,0.472,0.064,1.186,0.309
											c0.707,0.238,1.653,0.742,2.385,1.589c0.731,0.848,1.056,1.816,1.154,2.51c0.104,0.701,0.032,1.14,0.069,1.144
											c0.012,0.002,0.042-0.105,0.068-0.303c0.026-0.198,0.039-0.491,0.003-0.851c-0.064-0.716-0.379-1.73-1.141-2.614
											c-0.763-0.883-1.76-1.387-2.497-1.599c-0.371-0.109-0.68-0.161-0.894-0.18C168.27,447.292,168.151,447.296,168.15,447.307
											z"/>
									</g>
								</g>
							</g>
						</g>
					</g>
					<g>
						<g>
							<g>
								<g>
									<g>
										<path style="fill:#263238;" d="M175.31,451.943c-0.017,0.046,1.001,0.445,2.313,0.751c1.312,0.31,2.4,0.407,2.404,0.358
											c0.006-0.054-1.063-0.232-2.362-0.54C176.366,452.209,175.328,451.892,175.31,451.943z"/>
									</g>
								</g>
							</g>
						</g>
					</g>
					<g>
						<g>
							<g>
								<g>
									<g>
										<path style="fill:#263238;" d="M172.142,451.223c-0.048,0.028,0.04,0.228,0.098,0.478
											c0.062,0.249,0.073,0.463,0.129,0.472c0.052,0.012,0.136-0.219,0.066-0.507
											C172.367,451.377,172.185,451.194,172.142,451.223z"/>
									</g>
								</g>
							</g>
						</g>
					</g>
					<g>
						<g>
							<g>
								<g>
									<g>
										<path style="fill:#263238;" d="M171.254,449.57c-0.046,0.027,0.023,0.207,0.156,0.402
											c0.132,0.196,0.277,0.333,0.324,0.306c0.046-0.027-0.023-0.207-0.156-0.403C171.445,449.68,171.3,449.543,171.254,449.57z
											"/>
									</g>
								</g>
							</g>
						</g>
					</g>
					<g>
						<g>
							<g>
								<g>
									<g>
										<path style="fill:#263238;" d="M169.684,448.552c0,0.054,0.215,0.1,0.436,0.232c0.223,0.127,0.365,0.288,0.415,0.263
											c0.05-0.018-0.039-0.263-0.314-0.422C169.947,448.464,169.679,448.501,169.684,448.552z"/>
									</g>
								</g>
							</g>
						</g>
					</g>
					<g>
						<g>
							<g>
								<g>
									<g>
										<path style="fill:#263238;" d="M168.534,447.978c-0.03,0.043,0.046,0.141,0.169,0.22c0.124,0.079,0.248,0.108,0.278,0.066
											c0.03-0.042-0.046-0.141-0.169-0.22C168.688,447.965,168.564,447.936,168.534,447.978z"/>
									</g>
								</g>
							</g>
						</g>
					</g>
				</g>
			</g>
		</g>
		<g>
			<g>
				<path style="fill:#263238;" d="M232.151,141.32c-0.415-1.188-1.421-2.084-1.909-3.244c-0.731-1.736-0.195-3.706,0.005-5.579
					c0.199-1.873-0.192-4.145-1.909-4.919c-0.707-0.319-1.541-0.323-2.199-0.732c-1.335-0.831-1.265-2.739-1.388-4.307
					c-0.08-1.022-0.347-2.051-0.785-2.982c0.091-0.029,0.185-0.058,0.281-0.088c2.15-0.555,4.455,0.75,5.112,2.532
					c0.349,0.876,0.32,1.871-0.174,2.51c-0.481,0.652-1.354,0.926-1.942,0.625c-0.594-0.302-0.875-1.028-0.709-1.519
					c0.149-0.527,0.714-0.667,1.092-0.614c0.399,0.047,0.66,0.257,0.775,0.431c0.114,0.178,0.125,0.304,0.154,0.299
					c0.011,0.001,0.046-0.13-0.048-0.357c-0.096-0.222-0.38-0.509-0.842-0.602c-0.227-0.046-0.498-0.049-0.777,0.054
					c-0.281,0.093-0.55,0.348-0.668,0.678c-0.245,0.665,0.055,1.559,0.828,2.001c0.813,0.438,1.914,0.093,2.527-0.695
					c0.651-0.814,0.679-2.004,0.297-3.009c-0.695-1.92-2.95-3.307-5.259-2.99c0.497-0.805,0.568-1.819,0.306-2.657
					c-0.358-1.166-1.329-1.948-2.307-2.315c-0.991-0.384-2.041-0.376-2.931-0.159c-0.9,0.212-1.666,0.605-2.31,1.022
					c-0.648,0.423-1.148,0.887-1.635,1.198c-0.483,0.32-0.949,0.488-1.349,0.52c-0.815,0.073-1.188-0.304-1.211-0.251
					c-0.036-0.002,0.311,0.481,1.223,0.479c0.44,0.004,0.981-0.154,1.509-0.468c0.536-0.305,1.059-0.75,1.685-1.126
					c1.219-0.739,3.037-1.42,4.821-0.708c0.86,0.336,1.672,1.031,1.949,1.976c0.281,0.903,0.057,2.032-0.69,2.669
					c-0.529-0.913-1.243-1.698-2.165-2.218c-1.998-1.128-4.954-0.579-5.968,1.48l-16.408-5.632c-2.014-1.78-4.983-2.305-7.537-1.516
					c-0.113-0.02-0.221-0.041-0.344-0.054c-0.767-0.079-1.754-0.01-2.772,0.459c-1.048,0.45-1.898,1.45-2.79,2.438
					c-0.456,0.49-0.957,0.98-1.574,1.305c-0.1,0.052-0.208,0.089-0.313,0.129c-0.715,0.089-1.451,0.093-2.192,0.076
					c-1.381-0.316-2.809-1.109-4.511-1.283c-0.919-0.11-1.895-0.074-2.844,0.204c-0.949,0.283-1.848,0.821-2.536,1.603
					c-0.696,0.773-1.106,1.848-1.097,2.919c-0.007,0.779,0.15,1.535,0.359,2.269c-0.36,0.989-0.538,2.04-0.483,3.098
					c0.073,1.389,0.473,2.844,0.488,4.212c-0.388,0.31-0.848,0.539-1.343,0.685c-0.866,0.273-1.793,0.404-2.672,0.742
					c-1.771,0.696-3.014,2.185-3.545,3.753c-0.478,1.419-0.442,3.059,0.444,4.132c-0.384,1.839-0.043,3.839,1.157,5.293
					c0.8,0.97,1.891,1.693,2.572,2.751c1.078,1.675,0.924,3.82,1.196,5.794c0.272,1.973,1.416,4.202,3.404,4.332
					c1.602,0.105,3.04-1.24,4.641-1.109c2.245,0.184,3.163,2.873,4.461,4.714c1.641,2.326,4.626,3.626,7.446,3.243
					c2.04-0.278,4.062-1.357,6.058-0.85c2.51,0.637,4.018,3.579,6.581,3.947c1.908,0.273,3.674-0.994,5.09-2.302
					c1.416-1.308,2.857-2.8,4.754-3.14c2.283-0.41,4.482,0.971,6.78,1.286c2.967,0.408,6.109-1.169,7.556-3.791
					c1.263-2.289,1.259-5.098,2.44-7.431c0.79-1.563,2.066-2.82,3.047-4.27C232.033,144.811,232.729,142.973,232.151,141.32z
					 M166.352,133.94c-0.363-0.078-0.563-0.027-0.563-0.027c-0.001,0.027,0.167,0.03,0.449,0.112
					c-0.102,0.075-0.209,0.145-0.307,0.225c-0.941,0.765-1.59,1.822-1.937,2.978c-0.525-0.917-0.518-2.235-0.1-3.402
					c0.505-1.434,1.672-2.791,3.274-3.402c0.803-0.305,1.715-0.429,2.645-0.712c0.383-0.107,0.774-0.284,1.142-0.507
					c-0.059,0.538-0.199,1.057-0.472,1.548C169.624,132.289,167.804,132.92,166.352,133.94z M177.552,115.543
					c-2.674,0.429-4.982,2.321-6.182,4.734c-0.097-0.458-0.16-0.915-0.156-1.366c-0.005-0.954,0.336-1.853,0.945-2.542
					c1.222-1.42,3.172-1.862,4.878-1.645c0.948,0.082,1.823,0.388,2.691,0.69C178.995,115.406,178.266,115.428,177.552,115.543z
					 M185.782,114.848c-0.201,0.092-0.409,0.152-0.616,0.22c0.309-0.267,0.583-0.553,0.834-0.833
					c0.895-1.033,1.666-1.978,2.624-2.421c0.863-0.429,1.716-0.544,2.422-0.528c-0.428,0.169-0.844,0.369-1.234,0.619
					C188.408,112.803,187.298,114.152,185.782,114.848z"/>
			</g>
			<g>
				<g>
					<g>
						<g>
							<g>
								<g>
									<g>
										<g>
											<path style="fill:#FFBE9D;" d="M221.352,149.204c0.782-4.927,0.535-13.005,0.119-19.609
												c-0.374-5.944-5.617-10.38-11.539-9.754l-17.188,1.818c-1.799,0.19-3.153,1.726-3.118,3.535l1.772,42.225
												c-2.379,0.007-3.975,0.01-3.975,0.01v7.647c0,8.748,7.092,15.84,15.84,15.84c8.748,0,15.84-7.092,15.84-15.84v-6.617
												c0,0-4.118-1.344-6.618-1.208c-0.141,0.008-0.355,0.015-0.616,0.022c0.018-3.872,0.318-6.9,0.318-6.9
												S219.779,159.111,221.352,149.204z"/>
										</g>
										<g>
											<g>
												<g>
													<g>
														<g>
															<path style="fill:#263238;" d="M218.897,136.008c0.024,0.671-0.525,1.244-1.225,1.282
																c-0.699,0.037-1.286-0.475-1.31-1.146c-0.024-0.671,0.525-1.245,1.224-1.283
																C218.286,134.824,218.873,135.337,218.897,136.008z"/>
														</g>
													</g>
												</g>
											</g>
											<g>
												<g>
													<g>
														<g>
															<g>
																<path style="fill:#263238;" d="M219.719,133.797c-0.158,0.166-1.12-0.547-2.488-0.543
																	c-1.366-0.016-2.369,0.687-2.518,0.52c-0.073-0.074,0.088-0.373,0.525-0.691c0.43-0.317,1.164-0.625,2.015-0.621
																	c0.852,0.005,1.568,0.318,1.98,0.639C219.654,133.423,219.796,133.723,219.719,133.797z"/>
															</g>
														</g>
													</g>
												</g>
											</g>
										</g>
										<g>
											<g>
												<g>
													<g>
														<g>
															<path style="fill:#263238;" d="M205.531,136.008c0.024,0.671-0.525,1.244-1.225,1.282
																c-0.699,0.037-1.286-0.475-1.31-1.146c-0.024-0.671,0.525-1.245,1.224-1.283
																C204.92,134.824,205.507,135.337,205.531,136.008z"/>
														</g>
													</g>
												</g>
											</g>
											<g>
												<g>
													<g>
														<g>
															<g>
																<path style="fill:#263238;" d="M206.279,134.052c-0.158,0.166-1.122-0.546-2.488-0.543
																	c-1.366-0.016-2.369,0.687-2.518,0.52c-0.073-0.074,0.086-0.373,0.525-0.691c0.43-0.317,1.163-0.625,2.015-0.621
																	c0.852,0.005,1.568,0.318,1.98,0.639C206.213,133.679,206.356,133.978,206.279,134.052z"/>
															</g>
														</g>
													</g>
												</g>
											</g>
										</g>
										<g>
											<g>
												<g>
													<g>
														<g>
															<path style="fill:#263238;" d="M211.241,144.192c-0.006-0.078,0.843-0.225,2.221-0.401
																c0.349-0.036,0.679-0.105,0.738-0.344c0.082-0.252-0.064-0.629-0.233-1.035c-0.328-0.845-0.672-1.73-1.033-2.659
																c-1.434-3.785-2.472-6.898-2.319-6.954c0.153-0.056,1.439,2.966,2.873,6.751c0.345,0.933,0.675,1.823,0.989,2.674
																c0.132,0.397,0.359,0.847,0.181,1.37c-0.094,0.261-0.35,0.45-0.574,0.51c-0.224,0.068-0.42,0.072-0.593,0.082
																C212.106,144.264,211.246,144.27,211.241,144.192z"/>
														</g>
													</g>
												</g>
											</g>
										</g>
										<g>
											<g>
												<g>
													<g>
														<path style="fill:#EB996E;" d="M212.185,160.372c0,0-6.665,0.43-13.268-3.539c0,0,3.219,6.806,13.135,5.879
															L212.185,160.372z"/>
													</g>
												</g>
											</g>
										</g>
										<g>
											<g>
												<g>
													<g>
														<path style="fill:#EB996E;" d="M210.663,147.487c-0.492-0.65-1.353-1.007-2.209-0.915
															c-0.593,0.064-1.193,0.35-1.553,0.833c-0.361,0.483-0.436,1.169-0.108,1.63c0.369,0.519,1.14,0.639,1.793,0.453
															c0.653-0.185,1.214-0.615,1.747-1.043c0.148-0.118,0.298-0.242,0.391-0.404c0.092-0.162,0.112-0.375-0.002-0.509"/>
													</g>
												</g>
											</g>
										</g>
										<g>
											<g>
												<g>
													<g>
														<g>
															<path style="fill:#263238;" d="M207.217,145.138c0.222-0.013,0.225,1.471,1.496,2.525
																c1.268,1.057,2.85,0.89,2.862,1.098c0.021,0.093-0.352,0.288-1.02,0.306c-0.655,0.022-1.612-0.188-2.389-0.832
																c-0.775-0.646-1.108-1.508-1.159-2.117C206.95,145.497,207.116,145.13,207.217,145.138z"/>
														</g>
													</g>
												</g>
											</g>
										</g>
									</g>
								</g>
							</g>
							<g>
								<g>
									<g>
										<g>
											<path style="fill:#263238;" d="M206.894,131.658c-0.135,0.372-1.5,0.196-3.104,0.389
												c-1.608,0.161-2.902,0.631-3.115,0.297c-0.095-0.16,0.131-0.509,0.654-0.869c0.518-0.359,1.346-0.701,2.309-0.808
												c0.963-0.105,1.845,0.048,2.429,0.285C206.656,131.19,206.952,131.482,206.894,131.658z"/>
										</g>
									</g>
								</g>
							</g>
							<g>
								<g>
									<g>
										<g>
											<path style="fill:#263238;" d="M219.216,131.004c-0.241,0.311-1.182-0.012-2.315-0.027
												c-1.132-0.055-2.092,0.209-2.312-0.116c-0.097-0.158,0.054-0.469,0.473-0.763c0.413-0.293,1.104-0.532,1.882-0.509
												c0.778,0.025,1.452,0.306,1.847,0.624C219.191,130.533,219.322,130.852,219.216,131.004z"/>
										</g>
									</g>
								</g>
							</g>
						</g>
					</g>
				</g>
				<g>
					<path style="fill:#263238;" d="M225.159,120.753c-0.677-2.638-2.679-5.086-5.357-5.582c-1.747-0.324-3.543,0.194-5.316,0.079
						c-1.462-0.095-1.994-1.258-3.386-1.716c-2.322-0.762-4.104-3.341-9.114-2.802c-1.337,0.144-3.058,1.692-4.284,3.458
						c-1.919-0.828-4.45,0.063-5.833,0.668c-2.866,1.254-4.659,4.481-5.224,7.76c-0.565,3.279-0.104,6.651,0.359,9.948
						c0.211,1.506,0.422,3.012,0.634,4.519c0.14,0.999,0.307,2.028,0.798,2.88l-2.281,21.209c4.534,1.689,10.208-1.429,11.213-6.161
						c0.885-4.169-1.435-8.417-1.068-12.663c0.219-2.527,1.647-4.883,1.638-7.42c-0.003-0.785-0.127-1.62-0.353-2.468
						c0,0,0.001-0.001,0.001-0.001c4.031-3.269,5.057-5.902,4.888-8.965c1.242,0.843,2.692,1.37,4.196,1.389
						c2.123,0.027,4.327-0.796,6.314-0.047c1.431,0.539,2.444,1.791,3.532,2.865c1.088,1.074,2.5,2.067,4.014,1.855
						c0.73-0.103,1.39-0.477,2.082-0.732c0.692-0.255,1.506-0.378,2.138,0.001C225.41,126.186,225.835,123.391,225.159,120.753z"/>
				</g>
				<g>
					<g>
						<path style="fill:#455A64;" d="M165.923,142.459c0.044-0.071,1.031,0.932,3.287,1.881c1.123,0.456,2.579,0.887,4.304,0.91
							c1.707,0.025,3.719-0.375,5.473-1.649c1.731-1.236,3.283-3.284,3.542-5.802c0.128-1.236-0.074-2.58-0.745-3.715
							c-0.646-1.133-1.882-1.985-3.25-2.02c-0.676-0.021-1.348,0.201-1.887,0.621c-0.539,0.425-0.924,1.049-1.156,1.725
							c-0.448,1.373-0.228,2.977,0.759,4.136c0.939,1.188,2.395,1.941,3.923,2.331c1.54,0.382,3.2,0.398,4.802,0.08
							c1.603-0.322,3.12-0.99,4.37-1.969c1.251-0.98,2.193-2.283,2.708-3.729c0.53-1.439,0.641-2.999,0.357-4.439
							c-0.144-0.719-0.384-1.414-0.74-2.036c-0.351-0.629-0.777-1.184-1.345-1.583c-0.548-0.408-1.201-0.683-1.837-0.689
							c-0.634-0.016-1.229,0.324-1.526,0.859c-0.301,0.533-0.356,1.205-0.195,1.792c0.159,0.592,0.529,1.118,0.969,1.546
							c1.855,1.699,4.384,2.219,6.495,1.994c2.152-0.213,3.954-1.213,5.138-2.442c1.202-1.232,1.848-2.62,2.195-3.775
							c0.647-2.365,0.218-3.757,0.311-3.749c0,0,0.109,0.328,0.158,0.977c0.05,0.646,0.046,1.623-0.266,2.829
							c-0.324,1.191-0.956,2.632-2.18,3.929c-1.206,1.294-3.075,2.367-5.314,2.613c-2.202,0.252-4.835-0.242-6.848-2.051
							c-0.484-0.465-0.909-1.046-1.104-1.748c-0.191-0.694-0.143-1.477,0.229-2.15c0.366-0.681,1.152-1.131,1.939-1.111
							c0.785,0.006,1.518,0.326,2.132,0.774c0.631,0.437,1.122,1.072,1.495,1.739c0.386,0.669,0.647,1.414,0.803,2.182
							c0.309,1.538,0.193,3.191-0.365,4.721c-0.541,1.536-1.553,2.937-2.874,3.972c-1.322,1.038-2.917,1.74-4.596,2.077
							c-1.681,0.333-3.412,0.317-5.04-0.088c-1.611-0.414-3.171-1.212-4.207-2.523c-0.523-0.635-0.887-1.419-1.024-2.23
							c-0.131-0.81-0.054-1.635,0.189-2.399c0.261-0.755,0.698-1.465,1.331-1.962c0.634-0.494,1.439-0.75,2.216-0.721
							c1.568,0.047,2.944,1.029,3.647,2.277c0.727,1.251,0.926,2.686,0.781,4.004c-0.3,2.682-1.952,4.8-3.768,6.068
							c-1.844,1.309-3.949,1.696-5.7,1.639c-1.774-0.052-3.251-0.525-4.38-1.018c-1.135-0.498-1.937-1.04-2.453-1.432
							c-0.264-0.189-0.446-0.359-0.572-0.466C165.978,142.526,165.917,142.466,165.923,142.459z"/>
					</g>
				</g>
				<g>
					<g>
						<path style="fill:#455A64;" d="M225.737,125.229c0.007,0.01-0.143,0.147-0.477,0.335c-0.332,0.189-0.855,0.426-1.574,0.574
							c-0.717,0.135-1.634,0.186-2.658-0.045c-1.021-0.226-2.131-0.759-3.124-1.626c-0.995-0.864-1.874-2.048-2.463-3.491
							c-0.276-0.717-0.468-1.617-0.081-2.461c0.187-0.404,0.495-0.778,0.931-0.997c0.43-0.227,0.997-0.221,1.435,0.018
							c0.862,0.472,1.341,1.556,1.031,2.54c-0.291,0.968-1.094,1.659-1.957,2.086c-1.766,0.868-3.912,0.752-5.79,0.083
							c-0.95-0.332-1.84-0.777-2.669-1.287c-0.813-0.531-1.624-1.037-2.273-1.807c-0.646-0.741-0.905-1.981-0.224-2.842
							c0.328-0.427,0.933-0.616,1.431-0.507c0.501,0.105,0.922,0.39,1.222,0.767c0.303,0.37,0.457,0.892,0.39,1.359
							c-0.057,0.469-0.27,0.892-0.553,1.229c-0.572,0.67-1.398,1.047-2.2,1.107c-0.802,0.071-1.558-0.089-2.241-0.295
							c-0.684-0.215-1.315-0.463-1.91-0.735c-1.186-0.541-2.188-1.269-2.795-2.141c-0.625-0.872-0.771-1.829-0.718-2.559
							c0.053-0.745,0.345-1.276,0.583-1.576c0.25-0.298,0.437-0.39,0.437-0.39c0.075,0.028-0.743,0.536-0.81,1.978
							c-0.019,0.689,0.152,1.582,0.752,2.368c0.59,0.799,1.548,1.468,2.708,1.971c1.161,0.466,2.513,1.055,3.949,0.932
							c0.704-0.06,1.403-0.399,1.877-0.964c0.473-0.553,0.635-1.401,0.137-1.974c-0.442-0.592-1.406-0.852-1.86-0.242
							c-0.226,0.279-0.314,0.686-0.266,1.081c0.039,0.397,0.232,0.766,0.502,1.101c0.549,0.656,1.359,1.177,2.143,1.682
							c0.801,0.49,1.658,0.917,2.563,1.233c1.794,0.637,3.777,0.732,5.38-0.049c0.779-0.379,1.465-0.992,1.694-1.757
							c0.255-0.732-0.141-1.609-0.768-1.951c-0.639-0.375-1.42,0.081-1.702,0.739c-0.314,0.648-0.183,1.431,0.069,2.1
							c0.538,1.368,1.365,2.525,2.297,3.364c0.933,0.845,1.974,1.374,2.941,1.618c0.971,0.249,1.853,0.232,2.551,0.132
							C225.055,125.694,225.71,125.168,225.737,125.229z"/>
					</g>
				</g>
				<g>
					<g>
						<path style="fill:#455A64;" d="M196.86,148.489c0.008,0.01-0.124,0.145-0.423,0.342c-0.297,0.196-0.777,0.448-1.452,0.583
							c-0.669,0.136-1.541,0.158-2.477-0.16c-0.904-0.32-1.976-0.946-2.478-2.158c-0.246-0.573-0.244-1.446,0.38-1.954
							c0.582-0.512,1.537-0.471,2.156-0.002c1.26,0.908,1.782,2.644,1.535,4.267c-0.227,1.61-1.186,3.339-2.894,4.096
							c-1.671,0.773-3.734,0.56-5.375-0.398c-0.821-0.482-1.55-1.116-2.059-1.918c-0.511-0.787-0.748-1.809-0.487-2.727
							c0.128-0.452,0.347-0.89,0.704-1.222c0.349-0.336,0.847-0.533,1.327-0.512c0.969,0.033,1.747,0.696,2.142,1.438
							c0.41,0.751,0.551,1.565,0.587,2.335c0.035,0.775-0.041,1.53-0.217,2.234c-0.35,1.408-1.059,2.624-1.971,3.466
							c-0.907,0.857-2.026,1.268-2.997,1.349c-0.98,0.095-1.827-0.116-2.451-0.39c-0.626-0.284-1.047-0.621-1.296-0.876
							c-0.249-0.257-0.354-0.413-0.342-0.422c0.045-0.057,0.491,0.606,1.719,1.104c0.608,0.232,1.418,0.401,2.338,0.283
							c0.915-0.107,1.935-0.51,2.766-1.327c0.835-0.803,1.485-1.959,1.797-3.292c0.157-0.666,0.219-1.379,0.178-2.104
							c-0.04-0.723-0.186-1.473-0.547-2.117c-0.344-0.639-0.995-1.145-1.718-1.165c-0.723-0.039-1.318,0.597-1.507,1.355
							c-0.212,0.761-0.023,1.598,0.43,2.301c0.448,0.707,1.122,1.296,1.875,1.737c1.509,0.882,3.393,1.068,4.883,0.384
							c1.513-0.656,2.397-2.205,2.621-3.686c0.245-1.482-0.241-3.047-1.297-3.825c-0.509-0.388-1.195-0.405-1.634-0.044
							c-0.446,0.347-0.486,0.99-0.287,1.497c0.404,1.057,1.381,1.687,2.221,2.007c0.868,0.325,1.694,0.337,2.338,0.238
							C196.255,148.986,196.827,148.421,196.86,148.489z"/>
					</g>
				</g>
			</g>
		</g>
		<g>
			<g>
				<path style="fill:#263238;" d="M155.554,391.578c0,0,6.682,12.993,24.131,6.682c0,0,17.077,9.281,33.412-1.114
					c0,0,21.154,2.836,32.663-2.732L230.957,266.77l-1.874-19.604h-46.67c0,0-13.866,6.311-16.093,37.124
					c-2.227,30.813-7.054,73.134-7.054,73.134L155.554,391.578z"/>
			</g>
			<g>
				<g>
					<path style="fill:#455A64;" d="M212.105,397.538c-0.009,0.001-0.027-0.13-0.052-0.384c-0.025-0.28-0.059-0.655-0.101-1.132
						c-0.08-1.026-0.193-2.488-0.338-4.358c-0.288-3.785-0.652-9.265-1.053-16.04c-0.806-13.549-1.67-32.283-2.123-52.989
						c-0.445-20.713-0.395-39.469-0.177-53.04c0.107-6.786,0.232-12.276,0.356-16.069c0.064-1.874,0.114-3.339,0.149-4.367
						c0.022-0.478,0.039-0.854,0.052-1.135c0.015-0.256,0.027-0.387,0.036-0.386c0.009,0,0.015,0.132,0.018,0.388
						c0,0.282,0,0.658,0,1.137c-0.012,1.028-0.029,2.495-0.051,4.369c-0.045,3.823-0.111,9.306-0.191,16.069
						c-0.123,13.569-0.116,32.318,0.329,53.024c0.453,20.699,1.259,39.428,1.97,52.98c0.374,6.753,0.676,12.228,0.888,16.047
						c0.103,1.872,0.184,3.337,0.24,4.364c0.021,0.479,0.037,0.854,0.049,1.136C212.114,397.406,212.114,397.538,212.105,397.538z"
						/>
				</g>
			</g>
			<g>
				<g>
					<path style="fill:#455A64;" d="M216.197,361.026c-0.012-0.023,0.099-0.135,0.364-0.205c0.262-0.073,0.684-0.068,1.136,0.144
						c0.435,0.213,0.937,0.649,1.074,1.35c0.154,0.709-0.291,1.503-0.97,1.876c-0.668,0.394-1.578,0.37-2.109-0.125
						c-0.532-0.477-0.65-1.131-0.611-1.613c0.049-0.497,0.261-0.862,0.457-1.049c0.196-0.192,0.349-0.231,0.362-0.208
						c0.066,0.059-0.46,0.417-0.452,1.273c0.007,0.404,0.157,0.915,0.551,1.23c0.381,0.327,1.017,0.34,1.543,0.04
						c0.526-0.299,0.84-0.852,0.754-1.347c-0.07-0.5-0.432-0.89-0.775-1.102C216.791,360.844,216.214,361.112,216.197,361.026z"/>
				</g>
			</g>
			<g>
				<g>
					<path style="fill:#455A64;" d="M215.161,323.1c-0.012-0.023,0.099-0.135,0.364-0.205c0.262-0.073,0.684-0.068,1.136,0.144
						c0.435,0.213,0.937,0.649,1.074,1.35c0.154,0.709-0.291,1.503-0.97,1.876c-0.668,0.394-1.578,0.369-2.109-0.125
						c-0.532-0.477-0.65-1.131-0.611-1.613c0.049-0.497,0.261-0.862,0.457-1.049c0.196-0.192,0.349-0.231,0.362-0.208
						c0.066,0.059-0.46,0.417-0.452,1.273c0.007,0.403,0.157,0.914,0.551,1.23c0.381,0.326,1.017,0.34,1.543,0.04
						c0.526-0.299,0.84-0.852,0.754-1.347c-0.07-0.5-0.432-0.89-0.775-1.103C215.754,322.918,215.178,323.186,215.161,323.1z"/>
				</g>
			</g>
			<g>
				<g>
					<path style="fill:#455A64;" d="M214.552,289.581c-0.012-0.023,0.099-0.134,0.364-0.205c0.262-0.073,0.684-0.068,1.136,0.144
						c0.435,0.213,0.937,0.649,1.074,1.35c0.154,0.709-0.291,1.503-0.97,1.876c-0.668,0.394-1.578,0.369-2.109-0.125
						c-0.532-0.477-0.65-1.131-0.611-1.613c0.049-0.497,0.261-0.862,0.457-1.049c0.196-0.192,0.349-0.231,0.362-0.208
						c0.066,0.058-0.46,0.417-0.452,1.273c0.007,0.404,0.157,0.914,0.551,1.23c0.381,0.327,1.017,0.34,1.543,0.04
						c0.526-0.299,0.84-0.852,0.754-1.347c-0.07-0.5-0.432-0.89-0.775-1.103C215.145,289.398,214.569,289.667,214.552,289.581z"/>
				</g>
			</g>
			<g>
				<g>
					<path style="fill:#455A64;" d="M213.358,253.717c-0.012-0.023,0.099-0.135,0.364-0.205c0.262-0.073,0.684-0.068,1.135,0.144
						c0.435,0.213,0.937,0.649,1.074,1.35c0.154,0.709-0.291,1.503-0.97,1.876c-0.668,0.394-1.578,0.369-2.109-0.125
						c-0.532-0.477-0.65-1.131-0.611-1.613c0.049-0.497,0.261-0.861,0.457-1.049c0.196-0.192,0.349-0.231,0.362-0.208
						c0.066,0.059-0.46,0.417-0.452,1.273c0.007,0.404,0.157,0.915,0.551,1.23c0.381,0.326,1.017,0.34,1.543,0.04
						c0.526-0.299,0.84-0.852,0.754-1.347c-0.07-0.5-0.432-0.89-0.775-1.102C213.951,253.534,213.375,253.803,213.358,253.717z"/>
				</g>
			</g>
		</g>
	</g>
</g>
<g id="Message">
	<g>
		<g>
			<g>
				<g>
					<g>
						<g>
							<g>
								<g>
									<polygon style="fill:#E8505B;" points="274.235,214.902 510.105,213.189 516.68,373.551 272.445,371.287 									"/>
								</g>
							</g>
						</g>
						<g>
							<g>
								<g>
									<path style="fill:#E8505B;" d="M274.235,214.902l111.631-90.327c4.727-3.825,11.49-3.803,16.193,0.051l108.047,88.563"/>
								</g>
							</g>
						</g>
						<g style="opacity:0.3;">
							<g>
								<g>
									<path d="M274.235,214.902l111.631-90.327c4.727-3.825,11.49-3.803,16.193,0.051l108.047,88.563"/>
								</g>
							</g>
						</g>
						<g>
							<g>
								<g>
									<g>
										<path style="fill:#263238;" d="M272.445,371.287c-0.294-0.276,18.589-20.893,42.171-46.044
											c23.591-25.159,42.946-45.325,43.241-45.049c0.294,0.276-18.585,20.889-42.175,46.048
											C292.099,351.393,272.739,371.563,272.445,371.287z"/>
									</g>
								</g>
							</g>
						</g>
						<g>
							<g>
								<g>
									<g>
										<path style="fill:#263238;" d="M516.68,373.551c-0.302,0.268-18.691-19.932-41.069-45.113
											c-22.386-25.19-40.282-45.82-39.98-46.088c0.301-0.268,18.687,19.929,41.073,45.118
											C499.081,352.648,516.981,373.283,516.68,373.551z"/>
									</g>
								</g>
							</g>
						</g>
						<g style="opacity:0.5;">
							<g>
								<g>
									<polyline points="510.105,213.189 391.664,307.807 274.235,214.902 									"/>
								</g>
							</g>
						</g>
					</g>
					<g>
						<g>
							<g>
								<g>
									<polygon style="fill:#FAFAFA;" points="286.113,223.664 285.745,149.996 492.281,147.554 494.608,225.065 391.652,306.569 
																			"/>
								</g>
								<g>
									<g>
										<path style="fill:#263238;" d="M286.113,223.664c0,0,0.668,0.5,1.937,1.484c1.272,0.991,3.15,2.454,5.603,4.365
											c4.907,3.838,12.108,9.47,21.313,16.67c18.391,14.417,44.784,35.107,76.817,60.218l-0.264,0.001
											c29.659-23.495,64.85-51.373,102.929-81.538l-0.098,0.21c-0.445-14.788-0.912-30.3-1.387-46.087
											c-0.319-10.626-0.634-21.128-0.942-31.424l0.262,0.251c-83.231,0.947-156.654,1.782-206.536,2.35l0.165-0.168
											c0.081,23.179,0.145,41.583,0.189,54.202c0.013,6.308,0.023,11.169,0.029,14.461c-0.001,1.64-0.002,2.887-0.003,3.733
											C286.125,223.231,286.113,223.664,286.113,223.664s-0.016-0.419-0.028-1.252c-0.009-0.842-0.022-2.084-0.04-3.715
											c-0.026-3.287-0.065-8.141-0.115-14.439c-0.082-12.632-0.202-31.056-0.353-54.26l-0.001-0.166l0.166-0.002
											c49.882-0.612,123.304-1.513,206.534-2.534l0.254-0.003l0.008,0.255c0.31,10.295,0.625,20.797,0.945,31.424
											c0.473,15.787,0.938,31.299,1.381,46.087l0.004,0.13l-0.102,0.08c-38.099,30.14-73.309,57.994-102.983,81.469
											l-0.132,0.105l-0.132-0.104c-32.009-25.196-58.382-45.955-76.759-60.421c-9.165-7.231-16.335-12.888-21.221-16.743
											c-2.429-1.924-4.289-3.397-5.548-4.395C286.742,224.183,286.113,223.664,286.113,223.664z"/>
									</g>
								</g>
							</g>
						</g>
					</g>
				</g>
			</g>
		</g>
		<g>
			<g>
				<path style="fill:#263238;" d="M459.64,184.645c0.001,0.144-31.585,0.452-70.54,0.689c-38.969,0.237-70.549,0.312-70.55,0.168
					c-0.001-0.144,31.578-0.452,70.547-0.689C428.052,184.577,459.639,184.501,459.64,184.645z"/>
			</g>
		</g>
		<g>
			<g>
				<path style="fill:#263238;" d="M459.64,205.454c0.001,0.144-31.585,0.452-70.54,0.689c-38.969,0.237-70.549,0.312-70.55,0.168
					c-0.001-0.144,31.578-0.452,70.547-0.689C428.052,205.385,459.639,205.31,459.64,205.454z"/>
			</g>
		</g>
		<g>
			<g>
				<path style="fill:#263238;" d="M459.64,229.438c0.001,0.144-31.585,0.452-70.54,0.689c-38.969,0.236-70.549,0.312-70.55,0.168
					c-0.001-0.144,31.578-0.452,70.547-0.689C428.052,229.369,459.639,229.294,459.64,229.438z"/>
			</g>
		</g>
		<g>
			<g>
				<path style="fill:#263238;" d="M459.64,253.421c0.001,0.144-30.133,0.443-67.298,0.669c-37.177,0.226-67.306,0.292-67.307,0.148
					c-0.001-0.144,30.127-0.443,67.304-0.669C429.503,253.344,459.639,253.278,459.64,253.421z"/>
			</g>
		</g>
		<g>
			<g>
				<path style="fill:#263238;" d="M433.223,274.473c0,0.018-0.285,0.037-0.827,0.058c-0.59,0.016-1.38,0.038-2.372,0.064
					c-2.113,0.035-5.081,0.084-8.726,0.144c-7.413,0.106-17.568,0.252-28.787,0.413c-11.246,0.188-21.428,0.251-28.797,0.26
					c-3.646-0.009-6.614-0.016-8.727-0.021c-0.993-0.014-1.783-0.025-2.373-0.033c-0.542-0.013-0.827-0.029-0.827-0.047
					s0.285-0.037,0.827-0.058c0.59-0.016,1.38-0.038,2.372-0.064c2.113-0.035,5.08-0.084,8.725-0.144
					c7.413-0.106,17.569-0.252,28.792-0.413c11.242-0.188,21.423-0.251,28.792-0.26c3.646,0.009,6.614,0.016,8.727,0.021
					c0.993,0.014,1.783,0.025,2.373,0.033C432.938,274.439,433.223,274.455,433.223,274.473z"/>
			</g>
		</g>
		<g>
			<g>
				<path style="fill:#263238;" d="M406.635,294.708c0,0.144-6.735,0.26-15.04,0.26c-8.309,0-15.042-0.117-15.042-0.26
					c0-0.144,6.733-0.26,15.042-0.26C399.9,294.447,406.635,294.564,406.635,294.708z"/>
			</g>
		</g>
		<g>
			<circle style="fill:#263238;" cx="476.155" cy="253.421" r="24.948"/>
		</g>
		<g>
			<circle style="fill:#455A64;" cx="469.66" cy="253.421" r="24.948"/>
		</g>
		<g>
			<path style="fill:#EBEBEB;" d="M472.832,241.805v20.743h-3.852v-17.513h-4.386v-3.23H472.832z"/>
		</g>
	</g>
</g>
<g id="Speech_Bubble">
	<g>
		<g>
			<g>
				<path style="fill:#E8505B;" d="M287.732,116.351l22.815-0.007l-3.084-3.545l-0.003-8.49c-0.002-4.591-3.725-8.312-8.316-8.311
					l0,0c-4.592,0.002-8.312,3.725-8.311,8.316l0.003,8.079L287.732,116.351z"/>
			</g>
			<g>
				<path style="fill:#E8505B;" d="M295.95,115.23c0.053,1.331,0.931,2.594,2.16,3.109s2.745,0.254,3.731-0.642
					s1.391-2.38,0.997-3.652"/>
			</g>
			<g>
				<rect x="298.17" y="92.544" style="fill:#E8505B;" width="2.238" height="4.757"/>
			</g>
		</g>
		<g>
			<g>
				<g>
					<g>
						<path style="fill:#263238;" d="M332.408,100.735c-0.012,0.002-0.066-0.201-0.159-0.597c-0.097-0.428-0.23-1.012-0.4-1.761
							c-0.135-0.784-0.446-1.714-0.81-2.813c-0.195-0.544-0.335-1.157-0.611-1.763c-0.267-0.61-0.55-1.258-0.849-1.944
							c-1.286-2.691-3.159-5.882-6.048-8.938c-2.869-3.051-6.745-5.946-11.522-7.929c-2.362-1.066-4.997-1.696-7.741-2.204
							c-2.766-0.33-5.682-0.55-8.657-0.138c-1.501,0.091-2.98,0.481-4.497,0.785c-0.757,0.161-1.487,0.451-2.241,0.673
							c-0.753,0.23-1.509,0.468-2.232,0.816c-2.99,1.142-5.816,2.937-8.461,5.064c-5.312,4.255-9.462,10.664-11.295,18.069
							c-0.92,3.704-1.109,7.672-0.655,11.606c0.372,3.951,1.593,7.868,3.427,11.476l0.58,1.088l0.077,0.144l-0.045,0.148
							c-1.844,6.05-3.651,11.983-5.403,17.732l-0.474-0.429c4.926-2.569,9.703-5.059,14.285-7.449l0.177-0.092l0.161,0.124
							c4.605,3.542,9.866,5.692,15.041,6.533c5.19,0.843,10.263,0.337,14.776-1.008c4.523-1.345,8.477-3.586,11.684-6.252
							c3.217-2.667,5.689-5.746,7.517-8.795c1.809-3.079,2.882-6.147,3.646-8.865c0.631-2.761,0.934-5.182,0.988-7.163
							c0.007-0.987,0.012-1.865,0.017-2.63c-0.066-0.749-0.122-1.385-0.168-1.912c-0.04-0.492-0.071-0.88-0.095-1.173
							C332.403,100.872,332.398,100.737,332.408,100.735c0.009-0.001,0.032,0.131,0.069,0.393c0.037,0.292,0.087,0.678,0.149,1.169
							c0.061,0.528,0.136,1.167,0.223,1.917c0.01,0.77,0.022,1.653,0.035,2.646c-0.021,1.997-0.293,4.443-0.9,7.241
							c-0.741,2.754-1.798,5.87-3.605,9.003c-1.826,3.104-4.311,6.243-7.558,8.969c-3.237,2.725-7.241,5.023-11.83,6.411
							c-4.578,1.387-9.733,1.922-15.018,1.081c-5.269-0.839-10.636-3.014-15.338-6.617l0.338,0.032
							c-4.579,2.397-9.351,4.895-14.275,7.471l-0.72,0.377l0.245-0.805c1.749-5.751,3.553-11.685,5.394-17.736l0.031,0.291
							l-0.593-1.111c-1.875-3.688-3.12-7.695-3.5-11.733c-0.462-4.02-0.263-8.077,0.68-11.861c1.88-7.564,6.13-14.089,11.551-18.41
							c2.7-2.16,5.583-3.976,8.629-5.13c0.738-0.35,1.507-0.59,2.273-0.822c0.767-0.223,1.511-0.515,2.281-0.676
							c1.544-0.303,3.048-0.693,4.573-0.779c3.024-0.404,5.988-0.169,8.794,0.182c2.786,0.529,5.455,1.185,7.846,2.281
							c4.834,2.043,8.74,5.007,11.618,8.121c2.898,3.119,4.757,6.366,6.017,9.098c0.292,0.696,0.568,1.354,0.827,1.973
							c0.269,0.614,0.4,1.235,0.586,1.785c0.347,1.113,0.638,2.054,0.752,2.847c0.143,0.757,0.253,1.349,0.335,1.781
							C332.388,100.527,332.419,100.734,332.408,100.735z"/>
					</g>
				</g>
			</g>
		</g>
	</g>
</g>
<g id="Plant">
	<g>
		<g>
			<g>
				<path style="fill:#E8505B;" d="M608.31,338.209c3.266,11.055,0.786,25.257-3.171,36.083
					c-3.958,10.828-11.469,20.322-21.095,26.665c-1.086,0.716-2.475,1.407-3.618,0.79c-0.937-0.507-1.262-1.671-1.467-2.717
					c-2.32-11.845-0.699-24.427,4.547-35.298C588.752,352.86,597.594,343.763,608.31,338.209"/>
			</g>
		</g>
	</g>
	<g style="opacity:0.2;">
		<g>
			<g>
				<path d="M608.31,338.209c3.266,11.055,0.786,25.257-3.171,36.083c-3.958,10.828-11.469,20.322-21.095,26.665
					c-1.086,0.716-2.475,1.407-3.618,0.79c-0.937-0.507-1.262-1.671-1.467-2.717c-2.32-11.845-0.699-24.427,4.547-35.298
					C588.752,352.86,597.594,343.763,608.31,338.209"/>
			</g>
		</g>
	</g>
	<g>
		<g>
			<g>
				<g>
					<g>
						<g>
							<path style="fill:#E8505B;" d="M559.188,285.76c6.887-0.187,11.426,7.461,12.116,14.316
								c0.69,6.854-0.837,13.971,1.175,20.559c2.556,8.367,10.377,14.37,12.747,22.791c2.795,9.932-2.654,20.238-2.914,30.553
								c-0.127,5.018,0.982,10.091,0.054,15.024c-1.565,8.318-9.503,14.97-17.967,15.054c-8.464,0.084-16.533-6.409-18.262-14.695
								c-1.613-7.727,1.793-15.935-0.249-23.559c-1.51-5.636-5.884-10.42-6.241-16.243c-0.424-6.928,4.939-12.919,5.933-19.789
								c0.994-6.872-2.475-13.582-2.992-20.507C541.659,296.842,546.802,287.089,559.188,285.76"/>
						</g>
					</g>
				</g>
				<g>
					<g>
						<g>
							<g>
								<path style="fill:#263238;" d="M574.273,427.21c0.022,0.004,0.091-0.233,0.202-0.689c0.121-0.526,0.271-1.187,0.456-1.998
									c0.373-1.738,0.948-4.246,1.7-7.333c1.499-6.176,3.851-14.642,7.098-23.777c3.26-9.134,6.792-17.181,9.535-22.913
									c1.369-2.868,2.509-5.175,3.319-6.757c0.369-0.744,0.67-1.351,0.91-1.835c0.201-0.423,0.298-0.651,0.279-0.661
									c-0.02-0.011-0.155,0.195-0.394,0.598c-0.268,0.469-0.605,1.058-1.018,1.779c-0.88,1.548-2.085,3.826-3.509,6.674
									c-2.855,5.691-6.465,13.735-9.735,22.897c-3.257,9.162-5.546,17.674-6.933,23.889c-0.696,3.108-1.204,5.634-1.5,7.391
									c-0.136,0.819-0.247,1.488-0.336,2.022C574.277,426.961,574.251,427.206,574.273,427.21z"/>
							</g>
						</g>
					</g>
				</g>
				<g>
					<g>
						<g>
							<g>
								<path style="fill:#263238;" d="M559.475,319.636c-0.023,0.003,0.009,0.383,0.091,1.103c0.095,0.775,0.225,1.823,0.388,3.143
									c0.368,2.787,0.885,6.716,1.521,11.546c1.297,9.747,3.073,23.216,4.944,38.102c1.87,14.891,3.48,28.38,4.635,38.146
									c0.578,4.837,1.048,8.772,1.382,11.564c0.169,1.319,0.303,2.367,0.402,3.141c0.099,0.717,0.161,1.093,0.184,1.091
									c0.022-0.003,0.003-0.383-0.053-1.105c-0.069-0.778-0.163-1.83-0.28-3.154c-0.284-2.798-0.684-6.741-1.176-11.588
									c-1.038-9.78-2.576-23.281-4.447-38.176c-1.872-14.889-3.721-28.35-5.134-38.084c-0.722-4.818-1.31-8.738-1.727-11.519
									c-0.214-1.313-0.384-2.355-0.509-3.126C559.573,320.006,559.497,319.633,559.475,319.636z"/>
							</g>
						</g>
					</g>
				</g>
			</g>
		</g>
		<g>
			<g>
				<rect x="546.032" y="413.702" style="fill:#263238;" width="52.257" height="6.102"/>
			</g>
			<g>
				<polygon style="fill:#263238;" points="550.877,419.804 557.014,456.823 589.427,456.823 593.675,419.804 				"/>
			</g>
			<g>
				<g>
					<path style="fill:#455A64;" d="M593.841,419.553c0.002,0.144-9.651,0.381-21.558,0.529
						c-11.911,0.148-21.565,0.152-21.567,0.008c-0.002-0.144,9.649-0.38,21.56-0.529C584.183,419.413,593.84,419.41,593.841,419.553
						z"/>
				</g>
			</g>
			<g>
				<g>
					<path style="fill:#455A64;" d="M592.061,438.081c0,0.009-0.099,0.021-0.294,0.034c-0.224,0.011-0.51,0.024-0.866,0.041
						c-0.761,0.017-1.892,0.049-3.338-0.129c-1.427-0.184-3.249-0.59-4.94-1.852c-0.834-0.623-1.634-1.46-2.152-2.546
						c-0.514-1.072-0.742-2.423-0.308-3.719c0.402-1.289,1.707-2.418,3.257-2.354c0.766,0.039,1.507,0.432,2.017,1.02
						c0.514,0.588,0.843,1.322,1.009,2.095c0.634,3.163-1.585,6.678-4.963,7.781c-3.436,1.162-7.573-0.8-9.276-4.25
						c-0.425-0.862-0.709-1.81-0.753-2.8c-0.047-0.983,0.156-2.026,0.759-2.878c0.59-0.835,1.526-1.47,2.6-1.561
						c1.081-0.102,2.151,0.498,2.744,1.36c0.616,0.855,0.92,1.894,0.897,2.923c-0.015,1.021-0.297,2.015-0.75,2.9
						c-0.898,1.789-2.467,3.117-4.166,3.949c-1.712,0.839-3.534,1.278-5.332,1.506c-1.799,0.217-3.635,0.129-5.298-0.461
						c-1.654-0.59-3.102-1.682-3.981-3.123c-0.904-1.43-1.055-3.233-0.515-4.719c0.505-1.495,1.781-2.717,3.285-2.931
						c1.473-0.207,2.958,0.355,3.822,1.426c0.875,1.104,0.83,2.594,0.34,3.674c-0.473,1.12-1.327,1.94-2.195,2.508
						c-0.875,0.577-1.774,0.947-2.598,1.261c-0.828,0.31-1.595,0.56-2.293,0.761c-1.394,0.404-2.502,0.619-3.254,0.745
						c-0.376,0.063-0.664,0.102-0.859,0.124c-0.194,0.022-0.294,0.029-0.296,0.02c-0.001-0.009,0.096-0.033,0.287-0.073
						c0.22-0.045,0.499-0.103,0.848-0.175c0.743-0.159,1.838-0.405,3.215-0.836c0.688-0.214,1.446-0.477,2.261-0.799
						c0.812-0.324,1.689-0.703,2.525-1.271c0.832-0.562,1.623-1.345,2.052-2.394c0.447-1.019,0.457-2.354-0.322-3.316
						c-0.774-0.948-2.147-1.458-3.473-1.258c-1.331,0.199-2.48,1.297-2.939,2.677c-0.486,1.38-0.345,3.014,0.498,4.337
						c0.819,1.331,2.187,2.36,3.749,2.909c1.574,0.552,3.333,0.636,5.079,0.42c1.747-0.225,3.529-0.663,5.164-1.469
						c1.628-0.802,3.094-2.056,3.932-3.727c0.853-1.623,1.021-3.754-0.105-5.281c-0.526-0.756-1.4-1.229-2.283-1.15
						c-0.883,0.07-1.708,0.616-2.218,1.342c-0.517,0.726-0.711,1.659-0.668,2.555c0.038,0.904,0.301,1.794,0.696,2.598
						c1.584,3.239,5.495,5.095,8.67,4.019c3.164-1.009,5.267-4.337,4.689-7.237c-0.148-0.711-0.448-1.384-0.899-1.908
						c-0.45-0.522-1.077-0.854-1.727-0.894c-1.326-0.068-2.519,0.913-2.886,2.074c-0.406,1.175-0.216,2.442,0.26,3.458
						c0.477,1.031,1.231,1.843,2.028,2.455c1.614,1.241,3.384,1.671,4.792,1.884c1.424,0.207,2.55,0.209,3.31,0.225
						c0.357,0.004,0.642,0.008,0.866,0.011C591.961,438.066,592.061,438.073,592.061,438.081z"/>
				</g>
			</g>
		</g>
	</g>
</g>
</svg>
